<?xml version="1.0" encoding="UTF-8" standalone="no"?>
<!-- Created with Inkscape (http://www.inkscape.org/) -->

<svg
   width="297mm"
   height="297mm"
   viewBox="0 0 297 297"
   version="1.1"
   id="svg5"
   xml:space="preserve"
   inkscape:version="1.2.2 (b0a8486541, 2022-12-01)"
   sodipodi:docname="icon.svg"
   xmlns:inkscape="http://www.inkscape.org/namespaces/inkscape"
   xmlns:sodipodi="http://sodipodi.sourceforge.net/DTD/sodipodi-0.dtd"
   xmlns="http://www.w3.org/2000/svg"
   xmlns:svg="http://www.w3.org/2000/svg"><sodipodi:namedview
     id="namedview7"
     pagecolor="#ffffff"
     bordercolor="#666666"
     borderopacity="1.0"
     inkscape:showpageshadow="2"
     inkscape:pageopacity="0.0"
     inkscape:pagecheckerboard="0"
     inkscape:deskcolor="#d1d1d1"
     inkscape:document-units="mm"
     showgrid="false"
     inkscape:zoom="0.49638341"
     inkscape:cx="1398.1128"
     inkscape:cy="707.11469"
     inkscape:window-width="1920"
     inkscape:window-height="1011"
     inkscape:window-x="0"
     inkscape:window-y="0"
     inkscape:window-maximized="1"
     inkscape:current-layer="layer1" /><defs
     id="defs2"><symbol
       viewBox="0 0 24 24"
       id="ic_verified_user_24px"><path
         d="M 12,1 3,5 v 6 c 0,5.55 3.84,10.74 9,12 5.16,-1.26 9,-6.45 9,-12 V 5 Z M 10,17 6,13 7.41,11.59 10,14.17 16.59,7.58 18,9 Z"
         id="path846" /></symbol></defs><g
     inkscape:label="Layer 1"
     inkscape:groupmode="layer"
     id="layer1"><g
       id="g5792"><g
         id="g5615"
         transform="matrix(14.455795,0,0,14.117068,-2074.4162,-955.32945)"><path
           style="fill:#000000;stroke-width:0.264583"
           d="m 152.02484,87.295033 c -6.20866,-3.861459 -6.74772,-4.461178 -6.7391,-12.010757 l -0.003,-5.339983 c 2.95023,-0.518569 5.46373,-0.819271 8.46137,-1.180589 2.82594,0.285446 5.91528,0.820838 8.47197,1.180589 v 5.354179 c 0.10228,6.29006 -0.0303,7.955333 -5.84623,11.464484 -2.66816,1.51403 -2.28277,1.881934 -4.34584,0.532077 z m 1.73731,-0.721416 c 7.90822,-4.454695 7.17992,-5.139829 7.07248,-11.287153 l -0.0729,-4.172536 -7.00717,-0.921547 c -2.33858,0.302294 -4.67717,0.604586 -7.01575,0.906878 l -0.0782,4.101042 c -0.12536,6.574194 -0.22366,7.488091 7.10154,11.353546 0,0 0.12255,0.07856 -0.027,0.0061 z m -6.36191,-9.521233 v -3.96875 h 1.02498 1.02497 l 1.42242,2.168686 1.42242,2.168685 0.0764,-2.300977 0.0765,-2.300978 h 2.37945 c 3.61833,0 4.91927,0.773957 4.7437,2.78687 -0.0399,0.772509 -0.2775,1.142506 -0.76507,1.684263 l -0.76508,0.714689 0.78577,1.04511 c 0.43218,0.574811 0.89972,1.25347 1.03897,1.508131 l 0.2532,0.463021 h -1.06303 -1.06303 l -1.46382,-2.182812 -1.46383,-2.182813 1.1016,-0.132292 c 1.16546,-0.13996 1.74617,-0.700484 1.47035,-1.419245 -0.26299,-0.447918 -1.11325,-0.432838 -1.7619,-0.432838 h -1.5958 v 3.175 3.175 H 153.5197 152.76 l -1.5554,-2.377099 c -1.91916,-2.933034 -1.93838,-2.917824 -1.93874,-2.780229 l -0.0135,5.157279 h -0.92605 -0.92604 z"
           id="path5516"
           sodipodi:nodetypes="ccccccccccscccssccccccccccscccsscccccscccccccsscccc" /></g><path
         style="fill:#ffffff;fill-opacity:1;stroke:none;stroke-width:5.03643;stroke-miterlimit:4;stroke-dasharray:none;stroke-opacity:1"
         d="M 515.73038,982.87373 C 418.09494,931.32894 341.87577,884.66749 298.15662,849.67486 258.52023,817.95003 224.2188,777.95695 206.8728,743.24425 c -14.01294,-28.0426 -25.29196,-69.78276 -30.72146,-113.69057 -3.75298,-30.34997 -4.27341,-160.55843 -1.2147,-303.91376 1.6397,-76.84939 3.74482,-140.38322 4.67804,-141.18628 0.93323,-0.80307 87.36645,-12.1624 192.07381,-25.24298 l 190.37704,-23.78285 189.13372,24.38461 c 104.02354,13.41154 189.50115,24.75203 189.95022,25.20111 0.44907,0.44907 1.65711,45.12768 2.68452,99.2858 1.02743,54.15812 2.9277,141.0775 4.22284,193.15418 2.44835,98.44652 1.68554,138.43596 -3.32412,174.26046 -15.37453,109.94493 -77.18991,176.77777 -267.83659,289.5765 -38.54384,22.805 -113.54663,64.98993 -115.53992,64.98483 -0.7179,0 -21.24951,-10.53256 -45.62582,-23.40157 z m -200.4499,-408.72077 1.00729,-139.00546 9.59131,12.8427 c 9.58993,12.84086 39.18036,56.37485 130.94155,192.64363 l 48.83689,72.52458 41.80236,0.54452 41.80237,0.54452 v -170.5165 -170.5165 l 68.99908,1.05745 c 74.89519,1.14782 87.73635,2.73782 102.90175,12.74146 18.76926,12.38085 17.96009,41.70901 -1.6252,58.90513 -17.39764,15.27533 -40.03163,22.23014 -92.49354,28.42072 -18.71467,2.20837 -34.44273,4.43129 -34.95127,4.93983 -0.97614,0.97612 150.3379,222.57706 157.29073,230.35387 4.02197,4.4986 4.48285,4.53279 61.11665,4.53279 45.50918,0 57.06414,-0.53086 57.06414,-2.62167 0,-8.279 -36.02073,-61.61106 -82.53264,-122.19735 -15.61573,-20.34103 -28.13784,-37.58847 -27.82689,-38.32765 0.31094,-0.73919 9.82035,-9.78561 21.13201,-20.10313 46.95503,-42.82845 58.49379,-64.75696 60.47678,-114.93137 0.92809,-23.48333 0.4849,-29.55801 -3.22749,-44.23856 -2.36682,-9.3595 -7.2453,-21.91054 -10.84105,-27.8912 C 847.74236,315.57451 810.719,295.00183 757.47899,284.25035 721.7338,277.03184 686.27413,274.8145 586.93652,273.58612 l -98.01788,-1.21206 -1.1449,12.89128 c -0.62971,7.09021 -2.57386,60.48554 -4.32035,118.6563 -1.74649,58.17076 -3.35765,107.42174 -3.58036,109.44663 -0.22924,2.08403 -33.72778,-45.9967 -77.19698,-110.80145 l -76.79204,-114.48306 -56.67334,-0.53501 -56.67335,-0.53502 v 213.61058 213.61057 l 50.86794,-0.53824 50.86794,-0.53823 z"
         id="path5787"
         transform="scale(0.26458333)" /></g></g></svg>
